<svg width="160" height="160" fill="none" xmlns="http://www.w3.org/2000/svg"><path d="M81.12.007C36.128-.6-.6 36.127.006 81.115c.6 43.146 35.733 78.277 78.881 78.877 44.998.616 81.72-36.112 81.104-81.1C159.4 35.74 124.267.607 81.119.007Zm48.62 125.854a1.534 1.534 0 0 1-1.854.313 1.555 1.555 0 0 1-.508-.436 47.782 47.782 0 0 0-12.441-11.38c-9.792-6.284-22.2-9.745-34.933-9.745-12.734 0-25.141 3.461-34.933 9.745a47.795 47.795 0 0 0-12.442 11.376 1.532 1.532 0 0 1-1.152.615 1.534 1.534 0 0 1-1.21-.492 67.422 67.422 0 0 1-17.952-44.703c-.627-37.424 30.083-68.748 67.523-68.84 37.441-.092 67.855 30.309 67.855 67.686a67.423 67.423 0 0 1-17.953 45.861Z" fill="#999"/><path d="M80.004 36.927c-7.585 0-14.442 2.842-19.315 8.007-4.873 5.165-7.307 12.306-6.757 19.971C55.047 80 66.742 92.306 80.004 92.306c13.26 0 24.933-12.306 26.072-27.397.569-7.592-1.846-14.668-6.8-19.929-4.892-5.192-11.738-8.053-19.272-8.053Z" fill="#999"/></svg>