<svg width="30" height="30" viewBox="0 0 30 30" fill="none" xmlns="http://www.w3.org/2000/svg">
<path d="M15.0002 3.75C14.4252 3.75 13.8377 3.8 13.2502 3.925C9.80015 4.5875 7.05015 7.375 6.40015 10.825C5.80015 14.0875 7.00015 17.0875 9.17515 19.025C9.71265 19.5 10.0002 20.1625 10.0002 20.8625V23.75C10.0002 25.125 11.1252 26.25 12.5002 26.25H12.8502C13.2877 27 14.0752 27.5 15.0002 27.5C15.9252 27.5 16.7252 27 17.1502 26.25H17.5002C18.8752 26.25 20.0002 25.125 20.0002 23.75V20.8625C20.0002 20.175 20.2751 19.5 20.8001 19.0375C22.6126 17.4375 23.7502 15.1 23.7502 12.5C23.7502 7.6625 19.8377 3.75 15.0002 3.75ZM17.5002 23.75H12.5002V22.5H17.5002V23.75ZM17.5002 21.25H12.5002V20H17.5002V21.25ZM15.6252 14.2625V17.5H14.3752V14.2625L12.0877 11.9875L12.9752 11.1L15.0002 13.125L17.0252 11.1L17.9127 11.9875L15.6252 14.2625Z" fill="#F88500"/>
</svg>
