<svg width="102" height="34" viewBox="0 0 102 34" fill="none" xmlns="http://www.w3.org/2000/svg">
<path d="M33.472 10.144V14C33.472 14.0747 33.5147 14.1227 33.6 14.144C34.0053 14.1973 34.4 14.224 34.784 14.224C35.648 14.224 36.304 14.0373 36.752 13.664C37.2107 13.28 37.44 12.736 37.44 12.032C37.44 10.6133 36.5547 9.904 34.784 9.904C34.4 9.904 34.0053 9.93067 33.6 9.984C33.5147 10.0053 33.472 10.0587 33.472 10.144ZM32.16 20C31.9147 20 31.7013 19.9093 31.52 19.728C31.3493 19.5467 31.264 19.3333 31.264 19.088V9.312C31.264 9.056 31.3493 8.82667 31.52 8.624C31.6907 8.42133 31.904 8.30933 32.16 8.288C33.0667 8.20267 33.9413 8.16 34.784 8.16C36.384 8.16 37.584 8.48 38.384 9.12C39.184 9.74933 39.584 10.6667 39.584 11.872C39.584 13.2053 39.1947 14.2133 38.416 14.896C37.648 15.5787 36.5067 15.92 34.992 15.92C34.64 15.92 34.176 15.8987 33.6 15.856C33.5147 15.856 33.472 15.8987 33.472 15.984V19.088C33.472 19.3333 33.3813 19.5467 33.2 19.728C33.0187 19.9093 32.8053 20 32.56 20H32.16ZM45.5189 15.328C45.5082 15.36 45.5135 15.392 45.5349 15.424C45.5562 15.456 45.5829 15.472 45.6149 15.472H48.2709C48.3029 15.472 48.3295 15.456 48.3509 15.424C48.3722 15.392 48.3775 15.36 48.3669 15.328L46.9589 10.304C46.9589 10.2933 46.9535 10.288 46.9429 10.288C46.9322 10.288 46.9269 10.2933 46.9269 10.304L45.5189 15.328ZM42.7829 20C42.5589 20 42.3829 19.9093 42.2549 19.728C42.1269 19.5467 42.1002 19.3493 42.1749 19.136L45.4869 9.184C45.5829 8.928 45.7375 8.72 45.9509 8.56C46.1749 8.4 46.4202 8.32 46.6869 8.32H47.2629C47.5402 8.32 47.7855 8.4 47.9989 8.56C48.2229 8.72 48.3775 8.928 48.4629 9.184L51.7749 19.136C51.8495 19.3493 51.8229 19.5467 51.6949 19.728C51.5669 19.9093 51.3909 20 51.1669 20H50.5909C50.3349 20 50.0949 19.92 49.8709 19.76C49.6575 19.5893 49.5135 19.376 49.4389 19.12L48.9269 17.312C48.9162 17.2267 48.8575 17.184 48.7509 17.184H45.1349C45.0389 17.184 44.9802 17.2267 44.9589 17.312L44.4469 19.12C44.3829 19.376 44.2389 19.5893 44.0149 19.76C43.8015 19.92 43.5615 20 43.2949 20H42.7829ZM57.172 14.528V18.16C57.172 18.2453 57.22 18.2987 57.316 18.32C57.6573 18.384 58.02 18.416 58.404 18.416C60.1213 18.416 60.98 17.696 60.98 16.256C60.98 14.944 60.1213 14.288 58.404 14.288C58.052 14.288 57.6893 14.3147 57.316 14.368C57.22 14.3893 57.172 14.4427 57.172 14.528ZM55.844 20.032C55.588 20 55.3747 19.888 55.204 19.696C55.044 19.4933 54.964 19.264 54.964 19.008V9.232C54.964 8.98667 55.0493 8.77333 55.22 8.592C55.4013 8.41067 55.6147 8.32 55.86 8.32H61.604C61.8493 8.32 62.0573 8.40533 62.228 8.576C62.3987 8.74667 62.484 8.94933 62.484 9.184C62.484 9.41867 62.3933 9.62667 62.212 9.808C62.0413 9.97867 61.8387 10.064 61.604 10.064H57.316C57.22 10.064 57.172 10.1067 57.172 10.192V12.592C57.172 12.688 57.2147 12.7253 57.3 12.704C57.748 12.6507 58.1853 12.624 58.612 12.624C60.0733 12.624 61.1773 12.9387 61.924 13.568C62.6813 14.1867 63.06 15.0773 63.06 16.24C63.06 17.584 62.676 18.576 61.908 19.216C61.14 19.8453 59.924 20.16 58.26 20.16C57.4707 20.16 56.6653 20.1173 55.844 20.032ZM74.1964 14.16C74.1964 11.3867 73.183 10 71.1564 10C69.1297 10 68.1164 11.3867 68.1164 14.16C68.1164 16.9333 69.1297 18.32 71.1564 18.32C73.183 18.32 74.1964 16.9333 74.1964 14.16ZM75.0444 18.576C74.095 19.632 72.799 20.16 71.1564 20.16C69.5137 20.16 68.2124 19.632 67.2524 18.576C66.303 17.52 65.8284 16.048 65.8284 14.16C65.8284 12.272 66.303 10.8 67.2524 9.744C68.2124 8.688 69.5137 8.16 71.1564 8.16C72.799 8.16 74.095 8.688 75.0444 9.744C76.0044 10.8 76.4844 12.272 76.4844 14.16C76.4844 16.048 76.0044 17.52 75.0444 18.576ZM80.4104 10.176C80.165 10.176 79.9517 10.0907 79.7704 9.92C79.589 9.73867 79.4984 9.52533 79.4984 9.28V9.232C79.4984 8.98667 79.589 8.77333 79.7704 8.592C79.9517 8.41067 80.165 8.32 80.4104 8.32H87.2264C87.4717 8.32 87.685 8.41067 87.8664 8.592C88.0477 8.77333 88.1384 8.98667 88.1384 9.232V9.28C88.1384 9.52533 88.0477 9.73867 87.8664 9.92C87.685 10.0907 87.4717 10.176 87.2264 10.176H85.0824C84.997 10.176 84.9544 10.224 84.9544 10.32V19.088C84.9544 19.3333 84.8637 19.5467 84.6824 19.728C84.501 19.9093 84.2877 20 84.0424 20H83.5944C83.349 20 83.1357 19.9093 82.9544 19.728C82.773 19.5467 82.6824 19.3333 82.6824 19.088V10.32C82.6824 10.224 82.6397 10.176 82.5544 10.176H80.4104ZM94.4814 15.328C94.4707 15.36 94.476 15.392 94.4974 15.424C94.5187 15.456 94.5454 15.472 94.5774 15.472H97.2334C97.2654 15.472 97.292 15.456 97.3134 15.424C97.3347 15.392 97.34 15.36 97.3294 15.328L95.9214 10.304C95.9214 10.2933 95.916 10.288 95.9054 10.288C95.8947 10.288 95.8894 10.2933 95.8894 10.304L94.4814 15.328ZM91.7454 20C91.5214 20 91.3454 19.9093 91.2174 19.728C91.0894 19.5467 91.0627 19.3493 91.1374 19.136L94.4494 9.184C94.5454 8.928 94.7 8.72 94.9134 8.56C95.1374 8.4 95.3827 8.32 95.6494 8.32H96.2254C96.5027 8.32 96.748 8.4 96.9614 8.56C97.1854 8.72 97.34 8.928 97.4254 9.184L100.737 19.136C100.812 19.3493 100.785 19.5467 100.657 19.728C100.529 19.9093 100.353 20 100.129 20H99.5534C99.2974 20 99.0574 19.92 98.8334 19.76C98.62 19.5893 98.476 19.376 98.4014 19.12L97.8894 17.312C97.8787 17.2267 97.82 17.184 97.7134 17.184H94.0974C94.0014 17.184 93.9427 17.2267 93.9214 17.312L93.4094 19.12C93.3454 19.376 93.2014 19.5893 92.9774 19.76C92.764 19.92 92.524 20 92.2574 20H91.7454Z" fill="#333333"/>
<path d="M10 16V15H3.01L3 19C3 20.11 3.89 21 5 21H19C20.11 21 21 20.11 21 19V15H14V16H10ZM20 7H15.99V5L13.99 3H9.99L7.99 5V7H4C2.9 7 2 7.9 2 9V12C2 13.11 2.89 14 4 14H10V12H14V14H20C21.1 14 22 13.1 22 12V9C22 7.9 21.1 7 20 7ZM14 7H10V5H14V7Z" fill="#F88500"/>
<path d="M3.99219 30.2627H2.77637V29.9551H3.99219C4.24609 29.9551 4.45215 29.9141 4.61035 29.832C4.77051 29.748 4.88672 29.6348 4.95898 29.4922C5.0332 29.3496 5.07031 29.1895 5.07031 29.0117C5.07031 28.8379 5.0332 28.6777 4.95898 28.5312C4.88672 28.3848 4.77051 28.2676 4.61035 28.1797C4.45215 28.0898 4.24609 28.0449 3.99219 28.0449H2.90234V32H2.54199V27.7344H3.99219C4.30469 27.7344 4.56738 27.7881 4.78027 27.8955C4.99512 28.0029 5.15723 28.1523 5.2666 28.3438C5.37598 28.5352 5.43066 28.7559 5.43066 29.0059C5.43066 29.2676 5.37598 29.4932 5.2666 29.6826C5.15723 29.8701 4.99609 30.0137 4.7832 30.1133C4.57031 30.2129 4.30664 30.2627 3.99219 30.2627ZM8.89062 31.6924V32H6.49121V31.6924H8.89062ZM6.59961 27.7344V32H6.23926V27.7344H6.59961ZM8.5918 29.6475V29.9551H6.49121V29.6475H8.5918ZM8.87598 27.7344V28.0449H6.49121V27.7344H8.87598ZM10.0273 27.7344V32H9.66699V27.7344H10.0273ZM12.6992 27.7344L10.8066 29.999H9.88379L9.85156 29.6885H10.5957L12.248 27.7344H12.6992ZM12.3799 32L10.5781 29.958L10.7861 29.6416L12.8281 32H12.3799ZM14.9375 30.2627H13.7217V29.9551H14.9375C15.1914 29.9551 15.3975 29.9141 15.5557 29.832C15.7158 29.748 15.832 29.6348 15.9043 29.4922C15.9785 29.3496 16.0156 29.1895 16.0156 29.0117C16.0156 28.8379 15.9785 28.6777 15.9043 28.5312C15.832 28.3848 15.7158 28.2676 15.5557 28.1797C15.3975 28.0898 15.1914 28.0449 14.9375 28.0449H13.8477V32H13.4873V27.7344H14.9375C15.25 27.7344 15.5127 27.7881 15.7256 27.8955C15.9404 28.0029 16.1025 28.1523 16.2119 28.3438C16.3213 28.5352 16.376 28.7559 16.376 29.0059C16.376 29.2676 16.3213 29.4932 16.2119 29.6826C16.1025 29.8701 15.9414 30.0137 15.7285 30.1133C15.5156 30.2129 15.252 30.2627 14.9375 30.2627ZM18.5645 30.5645L19.8213 27.7344H20.2432L18.6113 31.2676C18.5723 31.3496 18.5264 31.4375 18.4736 31.5312C18.4209 31.623 18.3555 31.709 18.2773 31.7891C18.1992 31.8691 18.1035 31.9346 17.9902 31.9854C17.877 32.0361 17.7383 32.0615 17.5742 32.0615C17.5332 32.0615 17.4834 32.0586 17.4248 32.0527C17.3662 32.0469 17.3252 32.0391 17.3018 32.0293L17.3311 31.7305C17.3564 31.7363 17.3945 31.7422 17.4453 31.748C17.498 31.752 17.542 31.7539 17.5771 31.7539C17.7041 31.7539 17.8096 31.7266 17.8936 31.6719C17.9775 31.6172 18.0488 31.5469 18.1074 31.4609C18.166 31.373 18.2188 31.2812 18.2656 31.1855L18.5645 30.5645ZM17.2168 27.7344L18.6494 30.5498L18.7607 30.8691L18.4531 30.9307L16.8037 27.7344H17.2168ZM22.4346 27.7344V32H22.0771V27.7344H22.4346ZM23.8965 27.7344V28.0449H20.6182V27.7344H23.8965ZM24.9629 31.373L27.3916 27.7344H27.752V32H27.3916V28.3555L24.9629 32H24.6025V27.7344H24.9629V31.373ZM31.7246 29.6475V29.9551H29.1318V29.6475H31.7246ZM29.2168 27.7344V32H28.8564V27.7344H29.2168ZM32.0146 27.7344V32H31.6543V27.7344H32.0146ZM35.6768 27.7344V28.0449H33.4648V32H33.1074V27.7344H35.6768ZM38.252 31.373L40.6807 27.7344H41.041V32H40.6807V28.3555L38.252 32H37.8916V27.7344H38.252V31.373ZM44.9229 27.7344V32H44.5654V27.7344H44.9229ZM46.3848 27.7344V28.0449H43.1064V27.7344H46.3848ZM48.5293 30.2627H47.3135V29.9551H48.5293C48.7832 29.9551 48.9893 29.9141 49.1475 29.832C49.3076 29.748 49.4238 29.6348 49.4961 29.4922C49.5703 29.3496 49.6074 29.1895 49.6074 29.0117C49.6074 28.8379 49.5703 28.6777 49.4961 28.5312C49.4238 28.3848 49.3076 28.2676 49.1475 28.1797C48.9893 28.0898 48.7832 28.0449 48.5293 28.0449H47.4395V32H47.0791V27.7344H48.5293C48.8418 27.7344 49.1045 27.7881 49.3174 27.8955C49.5322 28.0029 49.6943 28.1523 49.8037 28.3438C49.9131 28.5352 49.9678 28.7559 49.9678 29.0059C49.9678 29.2676 49.9131 29.4932 49.8037 29.6826C49.6943 29.8701 49.5332 30.0137 49.3203 30.1133C49.1074 30.2129 48.8438 30.2627 48.5293 30.2627ZM52.1562 30.5645L53.4131 27.7344H53.835L52.2031 31.2676C52.1641 31.3496 52.1182 31.4375 52.0654 31.5312C52.0127 31.623 51.9473 31.709 51.8691 31.7891C51.791 31.8691 51.6953 31.9346 51.582 31.9854C51.4688 32.0361 51.3301 32.0615 51.166 32.0615C51.125 32.0615 51.0752 32.0586 51.0166 32.0527C50.958 32.0469 50.917 32.0391 50.8936 32.0293L50.9229 31.7305C50.9482 31.7363 50.9863 31.7422 51.0371 31.748C51.0898 31.752 51.1338 31.7539 51.1689 31.7539C51.2959 31.7539 51.4014 31.7266 51.4854 31.6719C51.5693 31.6172 51.6406 31.5469 51.6992 31.4609C51.7578 31.373 51.8105 31.2812 51.8574 31.1855L52.1562 30.5645ZM50.8086 27.7344L52.2412 30.5498L52.3525 30.8691L52.0449 30.9307L50.3955 27.7344H50.8086ZM57.6025 31.6924V32H54.251V31.6924H57.6025ZM54.3301 31.6924V33.0342H53.9727V31.6924H54.3301ZM57.9131 31.6924L57.9102 33.0342H57.5498V31.6924H57.9131ZM57.1689 27.7344V28.0449H55.2295V27.7344H57.1689ZM57.4561 27.7344V32H57.0986V27.7344H57.4561ZM55.1006 27.7344H55.4609L55.3848 29.2725C55.3711 29.5479 55.3438 29.8027 55.3027 30.0371C55.2637 30.2715 55.2148 30.4863 55.1562 30.6816C55.0977 30.877 55.0332 31.0518 54.9629 31.2061C54.8926 31.3584 54.8193 31.4902 54.7432 31.6016C54.667 31.7109 54.5898 31.7998 54.5117 31.8682C54.4355 31.9346 54.3623 31.9785 54.292 32H54.0693V31.6924H54.2568C54.3037 31.6436 54.3652 31.5635 54.4414 31.4521C54.5176 31.3389 54.5957 31.1875 54.6758 30.998C54.7578 30.8066 54.8301 30.5693 54.8926 30.2861C54.957 30.001 55.001 29.6631 55.0244 29.2725L55.1006 27.7344ZM61.7246 29.6387V30.0957C61.7246 30.3945 61.6855 30.665 61.6074 30.9072C61.5312 31.1475 61.4199 31.3535 61.2734 31.5254C61.1289 31.6973 60.9551 31.8291 60.752 31.9209C60.5488 32.0127 60.3203 32.0586 60.0664 32.0586C59.8184 32.0586 59.5918 32.0127 59.3867 31.9209C59.1836 31.8291 59.0088 31.6973 58.8623 31.5254C58.7158 31.3535 58.6025 31.1475 58.5225 30.9072C58.4424 30.665 58.4023 30.3945 58.4023 30.0957V29.6387C58.4023 29.3398 58.4414 29.0703 58.5195 28.8301C58.5996 28.5879 58.7129 28.3809 58.8594 28.209C59.0059 28.0371 59.1807 27.9053 59.3838 27.8135C59.5869 27.7217 59.8125 27.6758 60.0605 27.6758C60.3145 27.6758 60.543 27.7217 60.7461 27.8135C60.9492 27.9053 61.124 28.0371 61.2705 28.209C61.417 28.3809 61.5293 28.5879 61.6074 28.8301C61.6855 29.0703 61.7246 29.3398 61.7246 29.6387ZM61.3672 30.0957V29.6328C61.3672 29.3809 61.3379 29.1543 61.2793 28.9531C61.2227 28.752 61.1377 28.5801 61.0244 28.4375C60.9131 28.2949 60.7764 28.1855 60.6143 28.1094C60.4521 28.0332 60.2676 27.9951 60.0605 27.9951C59.8594 27.9951 59.6787 28.0332 59.5186 28.1094C59.3584 28.1855 59.2217 28.2949 59.1084 28.4375C58.9971 28.5801 58.9111 28.752 58.8506 28.9531C58.792 29.1543 58.7627 29.3809 58.7627 29.6328V30.0957C58.7627 30.3496 58.792 30.5781 58.8506 30.7812C58.9111 30.9824 58.998 31.1553 59.1113 31.2998C59.2246 31.4424 59.3613 31.5518 59.5215 31.6279C59.6836 31.7041 59.8652 31.7422 60.0664 31.7422C60.2754 31.7422 60.46 31.7041 60.6201 31.6279C60.7803 31.5518 60.916 31.4424 61.0273 31.2998C61.1387 31.1553 61.2227 30.9824 61.2793 30.7812C61.3379 30.5781 61.3672 30.3496 61.3672 30.0957ZM64.0156 30.5645L65.2725 27.7344H65.6943L64.0625 31.2676C64.0234 31.3496 63.9775 31.4375 63.9248 31.5312C63.8721 31.623 63.8066 31.709 63.7285 31.7891C63.6504 31.8691 63.5547 31.9346 63.4414 31.9854C63.3281 32.0361 63.1895 32.0615 63.0254 32.0615C62.9844 32.0615 62.9346 32.0586 62.876 32.0527C62.8174 32.0469 62.7764 32.0391 62.7529 32.0293L62.7822 31.7305C62.8076 31.7363 62.8457 31.7422 62.8965 31.748C62.9492 31.752 62.9932 31.7539 63.0283 31.7539C63.1553 31.7539 63.2607 31.7266 63.3447 31.6719C63.4287 31.6172 63.5 31.5469 63.5586 31.4609C63.6172 31.373 63.6699 31.2812 63.7168 31.1855L64.0156 30.5645ZM62.668 27.7344L64.1006 30.5498L64.2119 30.8691L63.9043 30.9307L62.2549 27.7344H62.668ZM68.9902 30.6699H69.3506C69.3213 30.957 69.2422 31.2051 69.1133 31.4141C68.9844 31.6211 68.8086 31.7803 68.5859 31.8916C68.3633 32.0029 68.0947 32.0586 67.7803 32.0586C67.5381 32.0586 67.3184 32.0127 67.1211 31.9209C66.9258 31.8291 66.7578 31.6992 66.6172 31.5312C66.4766 31.3613 66.3682 31.1582 66.292 30.9219C66.2158 30.6855 66.1777 30.4229 66.1777 30.1338V29.6006C66.1777 29.3115 66.2158 29.0498 66.292 28.8154C66.3682 28.5791 66.4775 28.376 66.6201 28.2061C66.7627 28.0361 66.9336 27.9053 67.1328 27.8135C67.332 27.7217 67.5566 27.6758 67.8066 27.6758C68.1094 27.6758 68.3711 27.7314 68.5918 27.8428C68.8125 27.9521 68.9863 28.1104 69.1133 28.3174C69.2422 28.5244 69.3213 28.7744 69.3506 29.0674H68.9902C68.9629 28.8369 68.9023 28.6416 68.8086 28.4814C68.7148 28.3213 68.585 28.1992 68.4189 28.1152C68.2549 28.0293 68.0508 27.9863 67.8066 27.9863C67.6074 27.9863 67.4297 28.0244 67.2734 28.1006C67.1172 28.1768 66.9844 28.2861 66.875 28.4287C66.7656 28.5693 66.6816 28.7383 66.623 28.9355C66.5664 29.1328 66.5381 29.3525 66.5381 29.5947V30.1338C66.5381 30.3682 66.5654 30.584 66.6201 30.7812C66.6748 30.9785 66.7549 31.1494 66.8604 31.2939C66.9678 31.4385 67.0986 31.5508 67.2529 31.6309C67.4072 31.7109 67.583 31.751 67.7803 31.751C68.0322 31.751 68.2422 31.7109 68.4102 31.6309C68.5801 31.5488 68.7119 31.4277 68.8057 31.2676C68.8994 31.1074 68.9609 30.9082 68.9902 30.6699ZM71.5713 27.7344V32H71.2139V27.7344H71.5713ZM73.0332 27.7344V28.0449H69.7549V27.7344H73.0332ZM75.1777 30.2627H73.9619V29.9551H75.1777C75.4316 29.9551 75.6377 29.9141 75.7959 29.832C75.9561 29.748 76.0723 29.6348 76.1445 29.4922C76.2188 29.3496 76.2559 29.1895 76.2559 29.0117C76.2559 28.8379 76.2188 28.6777 76.1445 28.5312C76.0723 28.3848 75.9561 28.2676 75.7959 28.1797C75.6377 28.0898 75.4316 28.0449 75.1777 28.0449H74.0879V32H73.7275V27.7344H75.1777C75.4902 27.7344 75.7529 27.7881 75.9658 27.8955C76.1807 28.0029 76.3428 28.1523 76.4521 28.3438C76.5615 28.5352 76.6162 28.7559 76.6162 29.0059C76.6162 29.2676 76.5615 29.4932 76.4521 29.6826C76.3428 29.8701 76.1816 30.0137 75.9688 30.1133C75.7559 30.2129 75.4922 30.2627 75.1777 30.2627ZM80.5742 29.6387V30.0957C80.5742 30.3945 80.5352 30.665 80.457 30.9072C80.3809 31.1475 80.2695 31.3535 80.123 31.5254C79.9785 31.6973 79.8047 31.8291 79.6016 31.9209C79.3984 32.0127 79.1699 32.0586 78.916 32.0586C78.668 32.0586 78.4414 32.0127 78.2363 31.9209C78.0332 31.8291 77.8584 31.6973 77.7119 31.5254C77.5654 31.3535 77.4521 31.1475 77.3721 30.9072C77.292 30.665 77.252 30.3945 77.252 30.0957V29.6387C77.252 29.3398 77.291 29.0703 77.3691 28.8301C77.4492 28.5879 77.5625 28.3809 77.709 28.209C77.8555 28.0371 78.0303 27.9053 78.2334 27.8135C78.4365 27.7217 78.6621 27.6758 78.9102 27.6758C79.1641 27.6758 79.3926 27.7217 79.5957 27.8135C79.7988 27.9053 79.9736 28.0371 80.1201 28.209C80.2666 28.3809 80.3789 28.5879 80.457 28.8301C80.5352 29.0703 80.5742 29.3398 80.5742 29.6387ZM80.2168 30.0957V29.6328C80.2168 29.3809 80.1875 29.1543 80.1289 28.9531C80.0723 28.752 79.9873 28.5801 79.874 28.4375C79.7627 28.2949 79.626 28.1855 79.4639 28.1094C79.3018 28.0332 79.1172 27.9951 78.9102 27.9951C78.709 27.9951 78.5283 28.0332 78.3682 28.1094C78.208 28.1855 78.0713 28.2949 77.958 28.4375C77.8467 28.5801 77.7607 28.752 77.7002 28.9531C77.6416 29.1543 77.6123 29.3809 77.6123 29.6328V30.0957C77.6123 30.3496 77.6416 30.5781 77.7002 30.7812C77.7607 30.9824 77.8477 31.1553 77.9609 31.2998C78.0742 31.4424 78.2109 31.5518 78.3711 31.6279C78.5332 31.7041 78.7148 31.7422 78.916 31.7422C79.125 31.7422 79.3096 31.7041 79.4697 31.6279C79.6299 31.5518 79.7656 31.4424 79.877 31.2998C79.9883 31.1553 80.0723 30.9824 80.1289 30.7812C80.1875 30.5781 80.2168 30.3496 80.2168 30.0957ZM81.8574 31.373L84.2861 27.7344H84.6465V32H84.2861V28.3555L81.8574 32H81.4971V27.7344H81.8574V31.373ZM83.6416 26.6885H83.9404C83.9404 26.835 83.9062 26.9648 83.8379 27.0781C83.7715 27.1914 83.6748 27.2803 83.5479 27.3447C83.4209 27.4092 83.2705 27.4414 83.0967 27.4414C82.835 27.4414 82.6279 27.3711 82.4756 27.2305C82.3252 27.0898 82.25 26.9092 82.25 26.6885H82.5459C82.5459 26.8232 82.5869 26.9404 82.6689 27.04C82.7529 27.1377 82.8955 27.1865 83.0967 27.1865C83.292 27.1865 83.4316 27.1367 83.5156 27.0371C83.5996 26.9375 83.6416 26.8213 83.6416 26.6885ZM88.4082 30.6699H88.7686C88.7393 30.957 88.6602 31.2051 88.5312 31.4141C88.4023 31.6211 88.2266 31.7803 88.0039 31.8916C87.7812 32.0029 87.5127 32.0586 87.1982 32.0586C86.9561 32.0586 86.7363 32.0127 86.5391 31.9209C86.3438 31.8291 86.1758 31.6992 86.0352 31.5312C85.8945 31.3613 85.7861 31.1582 85.71 30.9219C85.6338 30.6855 85.5957 30.4229 85.5957 30.1338V29.6006C85.5957 29.3115 85.6338 29.0498 85.71 28.8154C85.7861 28.5791 85.8955 28.376 86.0381 28.2061C86.1807 28.0361 86.3516 27.9053 86.5508 27.8135C86.75 27.7217 86.9746 27.6758 87.2246 27.6758C87.5273 27.6758 87.7891 27.7314 88.0098 27.8428C88.2305 27.9521 88.4043 28.1104 88.5312 28.3174C88.6602 28.5244 88.7393 28.7744 88.7686 29.0674H88.4082C88.3809 28.8369 88.3203 28.6416 88.2266 28.4814C88.1328 28.3213 88.0029 28.1992 87.8369 28.1152C87.6729 28.0293 87.4688 27.9863 87.2246 27.9863C87.0254 27.9863 86.8477 28.0244 86.6914 28.1006C86.5352 28.1768 86.4023 28.2861 86.293 28.4287C86.1836 28.5693 86.0996 28.7383 86.041 28.9355C85.9844 29.1328 85.9561 29.3525 85.9561 29.5947V30.1338C85.9561 30.3682 85.9834 30.584 86.0381 30.7812C86.0928 30.9785 86.1729 31.1494 86.2783 31.2939C86.3857 31.4385 86.5166 31.5508 86.6709 31.6309C86.8252 31.7109 87.001 31.751 87.1982 31.751C87.4502 31.751 87.6602 31.7109 87.8281 31.6309C87.998 31.5488 88.1299 31.4277 88.2236 31.2676C88.3174 31.1074 88.3789 30.9082 88.4082 30.6699ZM90.9893 27.7344V32H90.6318V27.7344H90.9893ZM92.4512 27.7344V28.0449H89.1729V27.7344H92.4512ZM94.6133 29.9492H93.4121L93.4062 29.6445H94.4404C94.6514 29.6445 94.8311 29.6143 94.9795 29.5537C95.1279 29.4932 95.2402 29.4033 95.3164 29.2842C95.3945 29.1631 95.4336 29.0146 95.4336 28.8389C95.4336 28.6592 95.3955 28.5107 95.3193 28.3936C95.2432 28.2744 95.1289 28.1865 94.9766 28.1299C94.8242 28.0732 94.6328 28.0449 94.4023 28.0449H93.5059V32H93.1455V27.7344H94.4023C94.6191 27.7344 94.8135 27.7559 94.9854 27.7988C95.1572 27.8418 95.3037 27.9092 95.4248 28.001C95.5459 28.0928 95.6377 28.209 95.7002 28.3496C95.7646 28.4883 95.7969 28.6543 95.7969 28.8477C95.7969 29.0234 95.7578 29.1826 95.6797 29.3252C95.6016 29.4658 95.4912 29.5811 95.3486 29.6709C95.208 29.7588 95.0391 29.8135 94.8418 29.835L94.6133 29.9492ZM94.5869 32H93.2979L93.4824 31.6924H94.5869C94.7979 31.6924 94.9775 31.6572 95.126 31.5869C95.2764 31.5146 95.3916 31.4121 95.4717 31.2793C95.5518 31.1465 95.5918 30.9883 95.5918 30.8047C95.5918 30.6426 95.5566 30.4971 95.4863 30.3682C95.416 30.2393 95.3086 30.1377 95.1641 30.0635C95.0195 29.9873 94.8359 29.9492 94.6133 29.9492H93.8662L93.8721 29.6445H94.9297L94.9941 29.7529C95.1855 29.7725 95.3525 29.832 95.4951 29.9316C95.6396 30.0293 95.751 30.1533 95.8291 30.3037C95.9092 30.4541 95.9492 30.6191 95.9492 30.7988C95.9492 31.0566 95.8916 31.2754 95.7764 31.4551C95.6631 31.6328 95.5039 31.7686 95.2988 31.8623C95.0957 31.9541 94.8584 32 94.5869 32ZM99.9746 29.6387V30.0957C99.9746 30.3945 99.9355 30.665 99.8574 30.9072C99.7812 31.1475 99.6699 31.3535 99.5234 31.5254C99.3789 31.6973 99.2051 31.8291 99.002 31.9209C98.7988 32.0127 98.5703 32.0586 98.3164 32.0586C98.0684 32.0586 97.8418 32.0127 97.6367 31.9209C97.4336 31.8291 97.2588 31.6973 97.1123 31.5254C96.9658 31.3535 96.8525 31.1475 96.7725 30.9072C96.6924 30.665 96.6523 30.3945 96.6523 30.0957V29.6387C96.6523 29.3398 96.6914 29.0703 96.7695 28.8301C96.8496 28.5879 96.9629 28.3809 97.1094 28.209C97.2559 28.0371 97.4307 27.9053 97.6338 27.8135C97.8369 27.7217 98.0625 27.6758 98.3105 27.6758C98.5645 27.6758 98.793 27.7217 98.9961 27.8135C99.1992 27.9053 99.374 28.0371 99.5205 28.209C99.667 28.3809 99.7793 28.5879 99.8574 28.8301C99.9355 29.0703 99.9746 29.3398 99.9746 29.6387ZM99.6172 30.0957V29.6328C99.6172 29.3809 99.5879 29.1543 99.5293 28.9531C99.4727 28.752 99.3877 28.5801 99.2744 28.4375C99.1631 28.2949 99.0264 28.1855 98.8643 28.1094C98.7021 28.0332 98.5176 27.9951 98.3105 27.9951C98.1094 27.9951 97.9287 28.0332 97.7686 28.1094C97.6084 28.1855 97.4717 28.2949 97.3584 28.4375C97.2471 28.5801 97.1611 28.752 97.1006 28.9531C97.042 29.1543 97.0127 29.3809 97.0127 29.6328V30.0957C97.0127 30.3496 97.042 30.5781 97.1006 30.7812C97.1611 30.9824 97.248 31.1553 97.3613 31.2998C97.4746 31.4424 97.6113 31.5518 97.7715 31.6279C97.9336 31.7041 98.1152 31.7422 98.3164 31.7422C98.5254 31.7422 98.71 31.7041 98.8701 31.6279C99.0303 31.5518 99.166 31.4424 99.2773 31.2998C99.3887 31.1553 99.4727 30.9824 99.5293 30.7812C99.5879 30.5781 99.6172 30.3496 99.6172 30.0957Z" fill="#333333"/>
</svg>
