<?xml version="1.0" standalone="no"?>
<!DOCTYPE svg PUBLIC "-//W3C//DTD SVG 20010904//EN"
 "http://www.w3.org/TR/2001/REC-SVG-20010904/DTD/svg10.dtd">
<svg version="1.0" xmlns="http://www.w3.org/2000/svg"
 width="980.000000pt" height="592.000000pt" viewBox="0 0 980.000000 592.000000"
 preserveAspectRatio="xMidYMid meet">
<metadata>
Created by potrace 1.15, written by Peter Selinger 2001-2017
</metadata>
<g transform="translate(0.000000,592.000000) scale(0.100000,-0.100000)"
fill="#000000" stroke="none">
<path d="M4545 5903 c-238 -19 -325 -28 -475 -49 -1218 -170 -2396 -723 -3254
-1527 -498 -467 -818 -1001 -816 -1366 3 -503 548 -1232 1360 -1816 844 -608
1870 -995 2945 -1111 201 -21 780 -30 1001 -15 796 55 1553 256 2259 600 609
297 1111 652 1531 1084 358 367 582 716 675 1047 35 127 34 308 -4 444 -134
487 -580 1045 -1222 1531 -444 336 -1014 639 -1578 839 -510 181 -1080 297
-1647 336 -131 9 -676 11 -775 3z m735 -558 c245 -44 436 -107 655 -215 620
-306 1083 -885 1254 -1568 57 -226 66 -312 66 -607 0 -238 -3 -285 -23 -398
-74 -412 -227 -763 -475 -1092 -91 -119 -336 -361 -461 -453 -312 -230 -641
-370 -1031 -439 -78 -14 -157 -17 -360 -18 -291 0 -409 15 -635 80 -1150 331
-1877 1479 -1700 2684 116 794 604 1468 1315 1817 229 112 461 184 705 218
146 21 557 15 690 -9z"/>
<path d="M4730 4494 c-80 -10 -238 -48 -319 -76 -212 -75 -396 -192 -561 -358
-297 -297 -450 -668 -450 -1090 0 -167 11 -261 45 -396 141 -557 580 -985
1144 -1115 137 -32 402 -37 556 -11 548 94 1001 489 1178 1027 59 177 71 263
71 490 0 231 -13 313 -74 498 -171 512 -597 895 -1122 1008 -91 20 -379 34
-468 23z"/>
</g>
</svg>
